<?xml version="1.0" encoding="UTF-8"?>
<svg width="196px" height="266px" viewBox="0 0 196 266" version="1.1" xmlns="http://www.w3.org/2000/svg" xmlns:xlink="http://www.w3.org/1999/xlink">
    <!-- Generator: Sketch 54 (76480) - https://sketchapp.com -->
    <title>balloon-big</title>
    <desc>Created with Sketch.</desc>
    <defs>
        <linearGradient x1="49.9969444%" y1="100%" x2="49.9969444%" y2="0%" id="linearGradient-1">
            <stop stop-color="#4D84D1" offset="0%"></stop>
            <stop stop-color="#70BBEA" offset="36%"></stop>
            <stop stop-color="#82D7F7" offset="56%"></stop>
        </linearGradient>
    </defs>
    <g id="Page-1" stroke="none" stroke-width="1" fill="none" fill-rule="evenodd">
        <g id="Fullcal-home" transform="translate(-1416.000000, -1272.000000)" fill-rule="nonzero">
            <g id="Powerful-Lightweight" transform="translate(203.000000, 1115.000000)">
                <g id="balloons" transform="translate(1056.576271, 157.000000)">
                    <g id="balloon-big" transform="translate(156.423729, 0.000000)">
                        <path d="M81.8864726,196.543543 L82.4875001,196.483256 L83.3461109,196.035411 L84.3335133,195.484218 L88.2917091,194.864125 L94.3019846,194.554079 L99.2561688,194.502404 L103.781048,194.554079 L106.545774,194.752164 L110.787312,195.466993 L113.52628,197 L115.604118,192.693801 C119.510797,184.623984 158.148283,154.118869 158.491727,153.782985 C200.640931,109.825304 196.193327,81.507738 195.566541,74.0666259 C193.377084,48.29833 182.052007,33.3558188 163.2055,20.3769345 C156.557208,15.8988153 149.396595,12.2381494 141.877608,9.47363819 C136.081986,7.28608901 135.128928,4.96074145 128.612072,3.49663373 C124.224571,2.50620792 117.98247,1.5588441 113.534866,0.973201014 C107.910966,0.215309959 97.9510804,0 97.916736,0 C97.3062871,0.185898059 96.6795081,0.312791268 96.0449645,0.378945528 C92.5214248,0.0443255335 88.9708203,0.128158987 85.4668796,0.62870508 C80.9505868,1.26602256 75.1206195,1.29185975 70.621499,2.35118475 C63.9243349,3.88419166 58.4549841,7.69948413 52.5305697,10.0248317 C44.8933547,12.9365628 37.6525575,16.8024296 30.9794389,21.5309959 C13.1718511,34.4495934 0.189655999,52.0963977 0.189655999,74.0666259 C0.189655999,74.4197342 -4.86756155,109.851141 37.2472976,153.843272 C37.5563975,154.153318 75.9964026,184.667046 79.8944955,192.736863 L81.8864726,196.543543 Z" id="Path" fill="url(#linearGradient-1)"></path>
                        <path d="M113,196.697183 C113,198.382922 105.879121,199.874801 97.0967033,199.992802 C87.3208791,200.119233 81,198.559924 81,196.899471 C81,195.239018 88.3142857,194 97.0967033,194 C105.879121,194 113,195.03673 113,196.697183 Z" id="Path" fill="#212329" opacity="0.7"></path>
                        <path d="M99.6330464,1 C164.316513,2.52809776 180.966501,46.6111427 166.467137,106.387237 C151.993788,164.618063 123.974981,163.150059 110.707022,195.471902 C109.787804,195.162849 108.556399,195.162849 107.021478,194.870965 C105.701417,194.602301 104.352548,194.498474 103.006403,194.561911 C101.663202,194.602134 100.319615,194.495611 99,194.244273 L99,194.244273 C100.343478,194.191939 101.688463,194.298573 103.006403,194.561911 C104.237809,194.561911 105.781401,194.870965 106.700619,194.870965 C107.932025,195.180018 109.172102,195.180018 110.099992,195.471902 C111.634912,195.780956 112.866318,196.390478 112.866318,197 C128.579743,163.459113 167.499089,160.025185 187.22759,101.133327 C203.574062,52.2599536 178.78119,1.91857562 99.6330464,1 Z" id="Path" fill="#3775CB"></path>
                        <path d="M97,194.261443 L94.8586006,194.261443 C93.5210962,194.198364 92.1809129,194.302191 90.8693807,194.570496 C89.3324085,194.570496 88.1149193,194.87955 86.8801608,194.87955 C85.3431886,195.188603 84.427913,195.188603 83.2017892,195.489072 C70.3274885,163.150059 42.1093702,164.583724 28.0003111,106.069598 C13.3213634,46.6111427 29.8394969,2.19328983 94.2455386,1 C15.7304377,1.91857562 -10.0354328,48.113486 7.01805055,101.133327 C25.9193544,159.939337 65.4229931,163.459113 81.0603897,197 C81.0603897,196.390478 81.9843,196.081424 83.8148511,195.480487 C84.7387613,195.162849 85.9562505,195.162849 87.1910091,194.870965 C88.4171329,194.870965 89.6518915,194.561911 90.8693807,194.561911 C92.2064186,194.601351 93.5438461,194.497738 94.8586006,194.252858 L97,194.261443 Z" id="Path" fill="#3775CB"></path>
                        <path d="M97,0 C49.7422993,0.0344842831 36.839844,45.2002741 47.5021116,105.832265 C57.6941107,164.033114 77.5565386,162.852027 86.9790076,195 C88.1846048,195 89.4073027,194.689641 90.9292623,194.689641 C85.1663366,162.533047 73.3155725,164.007251 66.945573,105.832265 C60.5584729,45.2002741 68.1511702,0 97,0 Z" id="Path" fill="#3775CB"></path>
                        <path d="M97,0 C125.824432,0 133.417001,45.2002741 127.028653,105.823644 C120.964846,164.007251 108.828693,162.533047 103.11505,194.689641 C104.626731,194.689641 105.839493,195 107.060794,195 C116.455424,162.843406 136.483067,164.007251 146.492618,105.823644 C157.065846,45.191653 144.622232,0 97,0 Z" id="Path" fill="#3775CB"></path>
                        <path d="M97.0514562,0 C87.120775,0 84.4177995,45.1140779 86.8242103,105.630444 C88.9340564,163.384725 93.1537486,162.223099 94.9500834,194 L99.1867222,194 C101.288095,162.223099 105.202749,163.384725 107.304122,105.630444 C109.397022,45.1140779 106.990611,0 97.0514562,0 Z" id="Path" fill="#3775CB"></path>
                        <polygon id="Path" fill="#3775CB" points="82.6190061 236 82 235.69759 89.4193548 217 105.199651 217 112 235.69759 111.686138 236 104.885789 217.613461 89.7332171 217.613461"></polygon>
                        <path d="M81.9544151,197.478471 C82.8535155,198.199917 83.889938,198.725935 84.9989314,199.023662 C85.9858284,199.349824 87.0081029,199.553861 88.0434478,199.631322 C88.643775,199.709449 90.4790609,199.71813 90.4790609,199.71813 L90.7020395,194.848173 C88.4272622,194.961337 86.1662937,195.272097 83.9440709,195.777024 C82.108785,196.089535 81.8257736,196.645109 81.6628276,196.870811 C81.5684905,197.009705 81.9544151,197.478471 81.9544151,197.478471 Z M91.0879641,199.631322 C95.137493,199.892589 99.1993484,199.892589 103.248877,199.631322 C104.106488,199.579237 105.778827,199.466385 106.602133,199.318811 C107.219613,199.214641 108.437419,198.884769 109.037746,198.711152 C109.852476,198.468088 111.687762,197.912513 111.996502,197.296173 C112.101206,197.121303 112.16841,196.926101 112.193752,196.723237 C112.125143,196.289194 111.473359,195.93328 109.955389,195.620769 C108.855677,195.325077 107.734343,195.118972 106.602133,195.004429 C105.396049,194.812858 104.178024,194.708424 102.95729,194.691918 L91.662563,194.691918 L91.0879641,199.631322 Z M82.2631548,198.407322 L89.5614179,216.56766 L90.4790609,200.247662 L90.1703212,200.247662 C89.1765955,200.260332 88.1836852,200.184809 87.2029898,200.02196 C86.0194876,199.735492 85.633563,199.787577 84.7159201,199.483747 C83.8724902,199.188565 83.0525249,198.828713 82.2631548,198.407322 L82.2631548,198.407322 Z M89.4585047,218 L81.3540879,197.790981 C80.8819707,197.267274 80.8819707,196.465668 81.3540879,195.94196 C82.0905763,195.458764 82.9213166,195.141951 83.789701,195.013109 C86.1021745,194.565334 88.4390528,194.258061 90.7878005,194.092939 C91.7740523,194.006131 101.705179,193.936684 102.95729,194.092939 C104.466684,194.283918 105.693066,194.283918 106.602133,194.40545 C107.734897,194.51131 108.8567,194.714598 109.955389,195.013109 C111.782099,195.62945 112.999906,195.94196 112.999906,196.870811 C113.002577,197.20402 112.89376,197.528337 112.691166,197.790981 C111.672065,198.501966 110.536859,199.025072 109.33791,199.336173 C108.737583,199.50979 107.519776,199.8223 106.902297,199.952513 C105.795389,200.153246 104.67355,200.257797 103.549041,200.265024 C99.4984184,200.577519 95.4301741,200.577519 91.3795516,200.265024 L89.990223,217.626723 L89.4585047,218 Z" id="Shape" fill="#3775CB"></path>
                        <polygon id="Path" fill="#3775CB" points="105.652568 218 105 218 113.365559 197 114 197 113.691843 197.618159"></polygon>
                        <polygon id="Path" fill="#3775CB" points="103.79322 194.035242 106 217.955947 105.288136 218 103 194"></polygon>
                        <polygon id="Path" fill="#3775CB" points="106.25 199.059127 107 199 104.729167 217 104 216.940873"></polygon>
                        <polygon id="Path" fill="#3775CB" points="110.39028 195 111 195.14346 105.60972 217 105 216.85654"></polygon>
                        <polygon id="Path" fill="#3775CB" points="90.4274194 218 89 200 89.2903226 200 91 218"></polygon>
                        <polygon id="Path" fill="#3775CB" points="84.6553596 195 91 217.84395 90.3351425 218 84 195.15605"></polygon>
                        <path d="M100,214.2649 C100,216.852346 98.6645768,222 97,222 C95.3354232,222 94,216.834188 94,214.2649 C94,211.695612 95.3260188,212.013369 97,212.013369 C98.9937304,212.013369 100,211.686534 100,214.2649 Z" id="Path" fill="#3775CB"></path>
                        <path d="M96.6487252,230.024975 L112.745042,236.385259 C112.899055,236.449309 112.999432,236.598163 113,236.763347 L113,258.247159 C112.997166,258.407617 112.896389,258.550421 112.745042,258.608443 L96.6487252,264.968727 C96.5540605,265.010424 96.4459395,265.010424 96.3512748,264.968727 L80.2549575,258.608443 C80.106467,258.546875 80.0071864,258.40619 80,258.247159 L80,236.763347 C80.0005677,236.598163 80.1009451,236.449309 80.2549575,236.385259 L96.3512748,230.024975 C96.4475643,229.991675 96.5524357,229.991675 96.6487252,230.024975 Z" id="Path" fill="#F2C973"></path>
                        <polygon id="Path" fill="#E8B254" points="97 243.651772 113 237 113 259.40006 97.140134 266"></polygon>
                        <polygon id="Path" fill="#F2C973" points="96.5042493 243 113 236.628262 96.3512748 230 80 236.322088"></polygon>
                        <polygon id="Path" fill="#82D7F7" opacity="0.8" points="90.633203 241 107 233.542857 103.42764 232 87 239.411224"></polygon>
                        <polygon id="Path" fill="#D0A76B" points="96.8524758 243.133176 80 236 80 258.928698 97 266"></polygon>
                        <polygon id="Path" fill="#82D7F7" opacity="0.5" points="90.9433962 239.567545 91 249 89 246.24547 87.1132075 247.477759 87 238"></polygon>
                    </g>
                </g>
            </g>
        </g>
    </g>
</svg>