<svg xmlns="http://www.w3.org/2000/svg" version="1.1" xmlns:xlink="http://www.w3.org/1999/xlink" xmlns:svgjs="http://svgjs.dev/svgjs" width="1000" height="270" viewBox="0 0 1000 270"><g transform="matrix(1,0,0,1,-0.6060599027445619,-0.41402125653650046)"><svg viewBox="0 0 396 107" data-background-color="#6936f5" preserveAspectRatio="xMidYMid meet" height="270" width="1000" xmlns="http://www.w3.org/2000/svg" xmlns:xlink="http://www.w3.org/1999/xlink"><g id="tight-bounds" transform="matrix(1,0,0,1,0.24000027851320738,0.16407509055335368)"><svg viewBox="0 0 395.52 106.67184540837596" height="106.67184540837596" width="395.52"><g><svg viewBox="0 0 532.4362662231704 143.59819751307379" height="106.67184540837596" width="395.52"><g transform="matrix(1,0,0,1,136.91626622317037,44.37392734456711)"><svg viewBox="0 0 395.52 54.85034282393957" height="54.85034282393957" width="395.52"><g><svg viewBox="0 0 395.52 54.85034282393957" height="54.85034282393957" width="395.52"><g><svg viewBox="0 0 395.52 54.85034282393957" height="54.85034282393957" width="395.52"><g transform="matrix(1,0,0,1,0,0)"><svg width="395.52" viewBox="2.4000000953674316 -35.400001525878906 258.1300048828125 35.80000305175781" height="54.85034282393957" data-palette-color="#ffffff"><path d="M20.9 0.4Q15.65 0.4 11.43-1.93 7.2-4.25 4.8-8.33 2.4-12.4 2.4-17.5L2.4-17.5Q2.4-22.6 4.8-26.68 7.2-30.75 11.45-33.08 15.7-35.4 20.95-35.4L20.95-35.4Q25.05-35.4 28.45-34.02 31.85-32.65 34.25-29.95L34.25-29.95 31-26.8Q27.05-30.95 21.15-30.95L21.15-30.95Q17.25-30.95 14.1-29.2 10.95-27.45 9.18-24.38 7.4-21.3 7.4-17.5L7.4-17.5Q7.4-13.7 9.18-10.63 10.95-7.55 14.1-5.8 17.25-4.05 21.15-4.05L21.15-4.05Q27-4.05 31-8.25L31-8.25 34.25-5.1Q31.85-2.4 28.43-1 25 0.4 20.9 0.4L20.9 0.4ZM65.5-35L70.45-35 70.45 0 65.65 0 65.65-4.95Q62.1 0.4 54.25 0.4L54.25 0.4Q48 0.4 44.47-3.4 40.95-7.2 40.95-14.25L40.95-14.25 40.95-35 45.95-35 45.95-14.4Q45.95-9.35 48.45-6.7 50.95-4.05 55.3-4.05L55.3-4.05Q60-4.05 62.75-6.85 65.5-9.65 65.5-15.15L65.5-15.15 65.5-35ZM109.8 0L104.35 0 96.8-10.75Q95.4-10.65 94.6-10.65L94.6-10.65 85.95-10.65 85.95 0 80.95 0 80.95-35 94.6-35Q101.4-35 105.3-31.75 109.2-28.5 109.2-22.8L109.2-22.8Q109.2-18.75 107.2-15.9 105.2-13.05 101.5-11.75L101.5-11.75 109.8 0ZM94.45-14.9Q99.2-14.9 101.7-16.95 104.2-19 104.2-22.8L104.2-22.8Q104.2-26.6 101.7-28.63 99.2-30.65 94.45-30.65L94.45-30.65 85.95-30.65 85.95-14.9 94.45-14.9ZM132.69-30.65L125.94-30.65 125.94-4.35 132.69-4.35 132.69 0 114.19 0 114.19-4.35 120.94-4.35 120.94-30.65 114.19-30.65 114.19-35 132.69-35 132.69-30.65ZM155.64 0.4Q150.34 0.4 146.09-1.93 141.84-4.25 139.42-8.35 136.99-12.45 136.99-17.5L136.99-17.5Q136.99-22.55 139.42-26.65 141.84-30.75 146.09-33.08 150.34-35.4 155.64-35.4L155.64-35.4Q160.89-35.4 165.14-33.08 169.39-30.75 171.79-26.68 174.19-22.6 174.19-17.5L174.19-17.5Q174.19-12.4 171.79-8.33 169.39-4.25 165.14-1.93 160.89 0.4 155.64 0.4L155.64 0.4ZM155.64-4.05Q159.49-4.05 162.57-5.8 165.64-7.55 167.42-10.63 169.19-13.7 169.19-17.5L169.19-17.5Q169.19-21.3 167.42-24.38 165.64-27.45 162.57-29.2 159.49-30.95 155.64-30.95L155.64-30.95Q151.79-30.95 148.67-29.2 145.54-27.45 143.77-24.38 141.99-21.3 141.99-17.5L141.99-17.5Q141.99-13.7 143.77-10.63 145.54-7.55 148.67-5.8 151.79-4.05 155.64-4.05L155.64-4.05ZM192.04 0.4Q188.09 0.4 184.41-0.83 180.74-2.05 178.64-4L178.64-4 180.49-7.9Q182.49-6.1 185.61-4.98 188.74-3.85 192.04-3.85L192.04-3.85Q196.39-3.85 198.54-5.33 200.69-6.8 200.69-9.25L200.69-9.25Q200.69-11.05 199.51-12.18 198.34-13.3 196.61-13.9 194.89-14.5 191.74-15.25L191.74-15.25Q187.79-16.2 185.36-17.15 182.94-18.1 181.21-20.08 179.49-22.05 179.49-25.4L179.49-25.4Q179.49-28.2 180.96-30.45 182.44-32.7 185.44-34.05 188.44-35.4 192.89-35.4L192.89-35.4Q195.99-35.4 198.99-34.6 201.99-33.8 204.14-32.3L204.14-32.3 202.49-28.3Q200.29-29.7 197.79-30.43 195.29-31.15 192.89-31.15L192.89-31.15Q188.64-31.15 186.51-29.6 184.39-28.05 184.39-25.6L184.39-25.6Q184.39-23.8 185.59-22.68 186.79-21.55 188.56-20.93 190.34-20.3 193.39-19.6L193.39-19.6Q197.34-18.65 199.74-17.7 202.14-16.75 203.86-14.8 205.59-12.85 205.59-9.55L205.59-9.55Q205.59-6.8 204.09-4.53 202.59-2.25 199.54-0.93 196.49 0.4 192.04 0.4L192.04 0.4ZM228.29-30.65L221.54-30.65 221.54-4.35 228.29-4.35 228.29 0 209.79 0 209.79-4.35 216.54-4.35 216.54-30.65 209.79-30.65 209.79-35 228.29-35 228.29-30.65ZM260.53-31.4L258.78-27.45Q253.68-30.35 247.88-30.9L247.88-30.9 247.88 0 242.93 0 242.93-30.9Q237.08-30.35 231.98-27.45L231.98-27.45 230.23-31.4Q236.93-35.4 245.33-35.4L245.33-35.4Q253.83-35.4 260.53-31.4L260.53-31.4Z" opacity="1" transform="matrix(1,0,0,1,0,0)" fill="#000000" class="undefined-text-0" data-fill-palette-color="primary" id="text-0"></path></svg></g></svg></g></svg></g></svg></g><g><svg viewBox="0 0 123.967416690666 143.59819751307379" height="143.59819751307379" width="123.967416690666"><g><svg xmlns="http://www.w3.org/2000/svg" xmlns:xlink="http://www.w3.org/1999/xlink" version="1.1" x="0" y="0" viewBox="9.63800048828125 3.246999979019165 80.7239990234375 93.50699615478516" enable-background="new 0 0 100 100" xml:space="preserve" height="143.59819751307379" width="123.967416690666" class="icon-icon-0" data-fill-palette-color="accent" id="icon-0"><g fill="#ffffff" data-fill-palette-color="accent"><g fill="#ffffff" data-fill-palette-color="accent"><polygon points="36.703,11.011 9.638,26.636 9.638,38.757 36.703,23.131 63.767,38.757 63.767,26.636   " fill="#000000" data-fill-palette-color="accent"></polygon></g><g fill="#ffffff" data-fill-palette-color="accent"><polygon points="63.298,89.092 36.233,73.467 36.233,61.348 63.298,76.973 90.362,61.348 90.362,73.467   " fill="#000000" data-fill-palette-color="accent"></polygon></g><g fill="#ffffff" data-fill-palette-color="accent"><polygon points="9.638,42.012 36.703,26.386 47.198,32.446 20.134,48.072 20.134,79.324 9.638,73.264   " fill="#000000" data-fill-palette-color="accent"></polygon></g><g fill="#ffffff" data-fill-palette-color="accent"><polygon points="77.083,18.872 50.018,3.247 39.522,9.307 66.586,24.932 66.586,56.184 77.083,50.124   " fill="#000000" data-fill-palette-color="accent"></polygon></g><g fill="#ffffff" data-fill-palette-color="accent"><polygon points="23.01,81.127 23.011,49.876 33.507,43.816 33.507,75.068 60.571,90.693 50.075,96.754   " fill="#000000" data-fill-palette-color="accent"></polygon></g><g fill="#ffffff" data-fill-palette-color="accent"><polygon points="90.362,58.092 90.362,26.84 79.866,20.78 79.866,52.031 52.802,67.658 63.298,73.719   " fill="#000000" data-fill-palette-color="accent"></polygon></g></g></svg></g></svg></g></svg></g><defs></defs></svg><rect width="395.52" height="106.67184540837596" fill="none" visibility="hidden"></rect></g></svg></g></svg>